<svg width="30" height="30" viewBox="0 0 24 24" fill="none" xmlns="http://www.w3.org/2000/svg">
  <path d="M2 12C2 12 5 7 12 7C19 7 22 12 22 12C22 12 19 17 12 17C5 17 2 12 2 12Z" stroke="#2dd4bf" stroke-width="1.5"/>
  <circle cx="12" cy="12" r="2.5" stroke="black" stroke-width="1.5"/>
  <path d="M8 18C7 18 6 19 6 20C6 21.1 6.9 22 8 22H16C17.1 22 18 21.1 18 20C18 19 17 18 16 18" stroke="black" stroke-width="1.5"/>
  <path d="M12 18V22" stroke="black" stroke-width="1"/>
  <path d="M4 14C3.5 15 3.5 16 4 17" stroke="#2dd4bf" stroke-width="1" stroke-linecap="round"/>
  <path d="M20 14C20.5 15 20.5 16 20 17" stroke="#2dd4bf" stroke-width="1" stroke-linecap="round"/>
</svg>