<svg xmlns="http://www.w3.org/2000/svg" viewBox="0 0 48 48" width="24" height="24">
  <path fill="#4285F4" d="M41.8,11.5H23.5L20,5.8H6.2C4.1,5.8,2.4,7.5,2.4,9.6v28.8c0,2.1,1.7,3.8,3.8,3.8h15.4L24,45l8.1-2.9h9.7 c2.1,0,3.8-1.7,3.8-3.8V15.3C45.6,13.2,43.9,11.5,41.8,11.5z"/>
  <path fill="#FFF" d="M12.7,28.6l-1.9-4.2H5.1l1.9,4.2H12.7z M15.1,34.1h-2.1l-1.1-2.4H5.2l-1.1,2.4H2l5.7-12.7h1.6L15.1,34.1z M34.6,23.1h-1.6c-0.4,1.9-1.3,3.8-2.6,5.4l-1.1-1.1c1-1.3,1.7-2.8,2-4.3h-4.6v-1.6h2.9V20h1.6v1.6h2.9v1.5H34.6z M30.1,29.3 c1.5-1.9,2.6-4.1,3-6.5h-1.6c-0.3,1.9-1.1,3.7-2.3,5.2L28,26.7l-1.1,1.1L28,28.9l-3.3,3.3l1.1,1.1l3.3-3.3l3.3,3.3l1.1-1.1L30.1,29.3z"/>
</svg>